<svg xmlns="http://www.w3.org/2000/svg" width="14" height="15" viewBox="0 0 14 15">
  <path id="Oval_9" data-name="Oval 9" d="M7,15c-3.86,0-7-2.86-7-6.376A6.057,6.057,0,0,1,1.921,4.238a20.465,20.465,0,0,0,.137,3.337.019.019,0,0,0,.013.006c.35-.079.075-5.29.016-6.333A1.655,1.655,0,0,1,5.08.755c.049,0,.094-.005.139-.005a1.648,1.648,0,0,1,.314.03,1.655,1.655,0,0,1,2.733.471h.007a1.661,1.661,0,0,1,.343.036A1.641,1.641,0,0,1,9.545,1,1.66,1.66,0,0,1,11.1,2.089a1.67,1.67,0,0,1,.354.171A1.655,1.655,0,0,1,14,3.655V8.681a6.071,6.071,0,0,1-2.071,4.47A7.32,7.32,0,0,1,7,15Z" fill="#fff"/>
</svg>
