<svg xmlns="http://www.w3.org/2000/svg" width="18.504" height="20.048" viewBox="0 0 18.504 20.048">
  <g id="Group_6" data-name="Group 6" transform="translate(0.65 -0.262)">
    <ellipse id="Oval_3" data-name="Oval 3" cx="4.892" cy="5.119" rx="4.892" ry="5.119" transform="translate(0 3.15)" fill="none" stroke="#80b6f4" stroke-miterlimit="10" stroke-width="1.3"/>
    <path id="Oval_3-2" data-name="Oval 3" d="M4.892,10.238A5.009,5.009,0,0,0,9.785,5.119,5.009,5.009,0,0,0,4.892,0,5.009,5.009,0,0,0,0,5.119a5.09,5.09,0,0,0,3.587,4.934A4.7,4.7,0,0,0,4.892,10.238Z" transform="translate(4.516 3.544)" fill="none" stroke="#ce71e1" stroke-miterlimit="10" stroke-width="1.3"/>
    <path id="Path_4" data-name="Path 4" d="M.753,0V5.986" transform="translate(4.007 13.674)" fill="none" stroke="#80b6f4" stroke-linecap="round" stroke-miterlimit="10" stroke-width="1.3"/>
    <path id="Path_4-2" data-name="Path 4" d="M4.14.394.376,4.331" transform="translate(12.796 0.788)" fill="none" stroke="#ce71e1" stroke-linecap="round" stroke-miterlimit="10" stroke-width="1.3"/>
    <path id="Path_4-3" data-name="Path 4" d="M1.129.394v3.15" transform="translate(15.806 0.788)" fill="none" stroke="#ce71e1" stroke-linecap="round" stroke-miterlimit="10" stroke-width="1.3"/>
    <path id="Path_5" data-name="Path 5" d="M0,.788H5.4" transform="translate(2.111 16.117)" fill="none" stroke="#80b6f4" stroke-linecap="round" stroke-miterlimit="10" stroke-width="1.3"/>
    <path id="Path_4-4" data-name="Path 4" d="M3.387,1.181H.376" transform="translate(13.548)" fill="none" stroke="#ce71e1" stroke-linecap="round" stroke-miterlimit="10" stroke-width="1.3"/>
  </g>
</svg>
