<svg xmlns="http://www.w3.org/2000/svg" width="27.999" height="27.506" viewBox="0 0 27.999 27.506">
  <path id="Path_762" data-name="Path 762" d="M10.076,27.506c-.123,0-.26,0-.4-.008l-.231-.006c-1.286-.031-2.112-1.819-2.12-1.837a6.373,6.373,0,0,1-2.839-1.005,3.684,3.684,0,0,1-.628-1.639,3.687,3.687,0,0,0-.629-1.641c-.119-.025-2.934-.64-3.146-2.311C-.137,17.365.09,16.8.835,16.046a2.979,2.979,0,0,1,2.117-.634c.191,0,.372.006.532.012l.193.006a27.883,27.883,0,0,1,3.27.426.026.026,0,0,1,0-.01,11.073,11.073,0,0,1-.138-2.7,7.686,7.686,0,0,1,2-4.885,9.3,9.3,0,0,1,6.577-2.4,8.735,8.735,0,0,1,.9.04s.008-.024.022-.063c.5-1.373.785-2.081.933-2.433a3.938,3.938,0,0,0,.215-.847A2.437,2.437,0,0,1,18.951.431,4.1,4.1,0,0,1,20.736,0a3.943,3.943,0,0,1,2.507.949c1.08.887.162,3.108.153,3.13h0l.018,0a13.827,13.827,0,0,1,3.114.972c.142.08.274.15.39.211.693.365,1.009.531,1.078,1.672A4.318,4.318,0,0,1,26.8,9.6c0,.077-.033,1.876-1.093,2.1a7.068,7.068,0,0,1-1.386.1c-1,0-2.056-.1-2.087-.1a.018.018,0,0,1,0,.007,9.205,9.205,0,0,1,.038,2.506,9.4,9.4,0,0,1-2.237,5.123A6.234,6.234,0,0,1,15.107,21.4a10.431,10.431,0,0,1-3.308-.56.2.2,0,0,1,0,.039,39.483,39.483,0,0,1-.316,5.055C11.228,27.364,10.877,27.506,10.076,27.506ZM16.882,8.812c-.032,0-3.176.188-4.051.278-.68.071-1.456.99-1.463,1l-.762,2.094.017-.023a9.774,9.774,0,0,1,1.929-2.071A34.6,34.6,0,0,1,16.882,8.812Z" transform="translate(-0.001 0)" opacity="1"/>
</svg>
